# xmcd CD database file
#
# Track frame offsets:
#	150
#	16540
#	31973
#	48624
#	64991
#	80431
#
# Disc length: 1293 seconds
#
# Revision: 2
# Processed by: cddbd v1.5.2PL0 Copyright (c) Steve Scherf et al.
# Submitted via: CD2WAV32(JP) R3.22
#
DISCID=42050b06
DTITLE=少女病 - Shining Days!
DYEAR=2006
DGENRE=JPop
TTITLE0=井上みゆ - Shining Days!
TTITLE1=井上みゆ - ユメコイ
TTITLE2=井上みゆ - 恋色ライフ
TTITLE3=Shining Das! - inst
TTITLE4=ユメコイ - inst
TTITLE5=恋色ライフ - inst
EXTD=
EXTT0=曲:少女病+ピクセルビー 詞:少女病
EXTT1=曲:HIR 詞:少女病
EXTT2=曲:猫野こめっと 詞:少女病
EXTT3=曲:少女病+ピクセルビー
EXTT4=曲:HIR
EXTT5=曲:猫野こめっと
PLAYORDER=
